<svg width="125" height="125" viewBox="0 0 125 125" fill="none" xmlns="http://www.w3.org/2000/svg">
<path d="M19.8103 104.196V48.4286H38.3728V104.196H19.8103ZM39.5781 31.2321C39.5781 36.5357 35.5603 40.875 29.0513 40.875H28.971C22.7031 40.875 18.6853 36.5357 18.6853 31.2321C18.6853 25.7679 22.8638 21.5893 29.2121 21.5893C35.5603 21.5893 39.4978 25.7679 39.5781 31.2321ZM86.5871 104.196V74.3839C86.5871 66.8304 83.9353 61.7679 77.2656 61.7679C72.1228 61.7679 69.0692 65.2232 67.7031 68.5179C67.221 69.7232 67.1406 71.4107 67.1406 73.0179V104.196H48.5781C48.8192 53.6518 48.5781 48.4286 48.5781 48.4286H67.1406V56.5446H66.9799C69.3906 52.6875 73.8103 47.1429 83.7746 47.1429C95.9888 47.1429 105.15 55.0982 105.15 72.2143V104.196H86.5871ZM124.194 24C124.194 11.2232 113.828 0.857137 101.051 0.857137H23.9085C11.1317 0.857137 0.765625 11.2232 0.765625 24V101.143C0.765625 113.92 11.1317 124.286 23.9085 124.286H101.051C113.828 124.286 124.194 113.92 124.194 101.143V24Z" fill="#FEFDF5"/>
</svg>
