<svg width="127" height="103" viewBox="0 0 127 103" fill="none" xmlns="http://www.w3.org/2000/svg">
<path d="M126.811 12.3571C122.151 14.3661 117.088 15.8125 111.865 16.375C117.249 13.1607 121.347 8.09821 123.276 2.07143C118.294 5.04464 112.669 7.21428 106.802 8.33928C102.061 3.27678 95.3114 0.142855 87.8382 0.142855C73.4542 0.142855 61.8828 11.7946 61.8828 26.0982C61.8828 28.1071 62.1239 30.1161 62.5257 32.0446C40.99 30.9196 21.7846 20.6339 9.00781 4.88393C6.75781 8.74106 5.4721 13.1607 5.4721 17.9821C5.4721 26.9821 10.0525 34.9375 17.0435 39.5982C12.7846 39.4375 8.76674 38.2321 5.31138 36.3036C5.31138 36.3839 5.31138 36.5446 5.31138 36.625C5.31138 49.2411 14.231 59.6875 26.1239 62.0982C23.9542 62.6607 21.6239 62.9821 19.2935 62.9821C17.606 62.9821 15.9989 62.8214 14.3917 62.5804C17.6864 72.8661 27.2489 80.3393 38.6596 80.5804C29.74 87.5714 18.5703 91.6696 6.43638 91.6696C4.26674 91.6696 2.25781 91.5893 0.168527 91.3482C11.6596 98.7411 25.3203 103 40.0257 103C87.7578 103 113.874 63.4643 113.874 29.1518C113.874 28.0268 113.874 26.9018 113.794 25.7768C118.856 22.0804 123.276 17.5 126.811 12.3571Z" fill="#FEFDF5"/>
</svg>
